<svg aria-hidden="true" style="position: absolute; width: 0; height: 0; overflow: hidden;" version="1.1" xmlns="http://www.w3.org/2000/svg" xmlns:xlink="http://www.w3.org/1999/xlink">
<defs>
<symbol id="icon-html5" viewBox="0 0 32 32">
<path d="M2 0h28l-2.547 28.751-11.484 3.249-11.419-3.251-2.551-28.749zM11.375 13l-0.309-3.624 13.412 0.004 0.307-3.496-17.568-0.004 0.931 10.68h12.168l-0.435 4.568-3.88 1.072-3.94-1.080-0.251-2.813h-3.479l0.44 5.561 7.229 1.933 7.172-1.924 0.992-10.876h-12.789z"></path>
</symbol>
<symbol id="icon-bootstrap" viewBox="0 0 32 32">
<path d="M15.693 14.987h-2.419v-4.051h2.869c1.56 0 2.445 0.696 2.445 1.955 0 1.344-1.031 2.096-2.899 2.096zM16.125 16.595h-2.849v4.464h2.975c1.945 0 2.976-0.78 2.976-2.247s-1.060-2.217-3.101-2.217zM32 15.187v1.624c-1.504 0.144-2.423 1.259-2.968 3.024-0.543 1.759-0.617 3.916-0.56 5.581 0.060 1.733-1.291 3.333-3.116 3.333h-18.709c-1.827 0-3.177-1.6-3.116-3.333 0.057-1.665-0.017-3.823-0.56-5.581-0.547-1.765-1.467-2.88-2.971-3.024v-1.624c1.504-0.144 2.425-1.259 2.969-3.024 0.544-1.759 0.619-3.916 0.56-5.581-0.060-1.733 1.291-3.333 3.117-3.333h18.709c1.827 0 3.176 1.6 3.116 3.333-0.057 1.665 0.017 3.823 0.56 5.581 0.545 1.765 1.464 2.88 2.968 3.024zM21.431 18.943c0-1.805-1.271-3.111-3.157-3.317v-0.076c1.387-0.225 2.475-1.513 2.475-2.951 0-2.049-1.617-3.384-4.083-3.384h-5.547v13.563h5.575c2.957 0 4.737-1.448 4.737-3.835z"></path>
</symbol>
<symbol id="icon-bitbucket" viewBox="0 0 32 32">
<path d="M1.037 1.617c-0.004-0-0.009-0-0.013-0-0.566 0-1.024 0.458-1.024 1.024 0 0.058 0.005 0.116 0.014 0.171l-0.001-0.006 4.351 26.413c0.112 0.667 0.687 1.157 1.363 1.164h20.873c0.003 0 0.007 0 0.011 0 0.509 0 0.932-0.37 1.015-0.855l0.001-0.006 4.36-26.707c0.008-0.049 0.013-0.106 0.013-0.164 0-0.566-0.458-1.024-1.024-1.024-0.005 0-0.009 0-0.014 0h0.001zM19.36 20.707h-6.664l-1.803-9.419h10.081z"></path>
</symbol>
<symbol id="icon-webpack" viewBox="0 0 32 32">
<path d="M29.598 24.664l-13.027 7.336v-5.714l8.116-4.445 4.91 2.823zM30.489 23.861v-15.343l-4.767 2.739v9.861zM2.402 24.664l13.027 7.336v-5.714l-8.116-4.445-4.91 2.823zM1.511 23.861v-15.343l4.767 2.739v9.861zM2.068 7.525l13.36-7.525v5.525l-8.624 4.724zM29.932 7.525l-13.36-7.525v5.525l8.624 4.725 4.736-2.724zM15.428 24.987l-8.007-4.383v-8.686l8.007 4.603v8.465zM16.572 24.987l8.007-4.383v-8.686l-8.007 4.603zM7.963 10.913l8.038-4.402 8.039 4.402-8.038 4.622z"></path>
</symbol>
<symbol id="icon-git" viewBox="0 0 32 32">
<path d="M31.395 14.573l-13.972-13.971c-0.805-0.804-2.109-0.804-2.917 0l-2.895 2.9 3.68 3.68c0.86-0.287 1.839-0.093 2.519 0.588 0.688 0.687 0.877 1.677 0.584 2.533l3.544 3.547c0.86-0.297 1.849-0.104 2.533 0.58 0.961 0.96 0.961 2.512 0 3.472-0.959 0.959-2.508 0.959-3.467 0-0.719-0.721-0.899-1.783-0.539-2.661l-3.319-3.301v8.7c0.235 0.115 0.456 0.271 0.651 0.464 0.951 0.961 0.951 2.511 0 3.467-0.959 0.961-2.519 0.961-3.479 0-0.959-0.959-0.959-2.505 0-3.464 0.243-0.24 0.516-0.421 0.807-0.541v-8.785c-0.289-0.121-0.565-0.296-0.8-0.535-0.727-0.727-0.901-1.789-0.528-2.679l-3.616-3.633-9.581 9.575c-0.8 0.807-0.8 2.112 0 2.919l13.973 13.969c0.805 0.805 2.109 0.805 2.915 0l13.907-13.907c0.807-0.804 0.807-2.109 0-2.916z"></path>
</symbol>
<symbol id="icon-sass" viewBox="0 0 32 32">
<path d="M16 0c8.836 0 16 7.164 16 16s-7.164 16-16 16-16-7.164-16-16 7.164-16 16-16zM12.82 21.331c0.233 0.86 0.208 1.664-0.032 2.389l-0.087 0.24c-0.032 0.081-0.069 0.16-0.104 0.235-0.187 0.387-0.435 0.747-0.74 1.080-0.931 1.012-2.229 1.396-2.787 1.073-0.6-0.349-0.301-1.78 0.779-2.92 1.161-1.224 2.827-2.012 2.827-2.012v-0.004l0.144-0.081zM26.035 6.849c-0.723-2.844-5.436-3.779-9.896-2.193-2.652 0.943-5.525 2.424-7.591 4.356-2.457 2.295-2.848 4.295-2.687 5.131 0.569 2.948 4.609 4.876 6.271 6.307v0.008c-0.489 0.24-4.075 2.039-4.915 3.9-0.9 1.96 0.14 3.361 0.82 3.54 2.1 0.581 4.26-0.48 5.42-2.199 1.12-1.681 1.021-3.841 0.539-4.901 0.661-0.18 1.44-0.26 2.44-0.139 2.801 0.32 3.361 2.080 3.24 2.8-0.12 0.719-0.697 1.139-0.899 1.259-0.2 0.121-0.26 0.16-0.241 0.241 0.020 0.12 0.121 0.12 0.28 0.1 0.22-0.040 1.461-0.6 1.521-1.961 0.060-1.72-1.581-3.639-4.5-3.6-1.2 0.021-1.961 0.121-2.5 0.341-0.040-0.060-0.081-0.1-0.14-0.14-1.8-1.94-5.14-3.3-5-5.88 0.040-0.94 0.38-3.419 6.4-6.419 4.94-2.461 8.881-1.78 9.561-0.28 0.977 2.139-2.101 6.12-7.241 6.699-1.96 0.22-2.98-0.539-3.241-0.82-0.279-0.3-0.319-0.32-0.419-0.259-0.16 0.080-0.060 0.34 0 0.5 0.16 0.4 0.78 1.1 1.861 1.46 0.939 0.3 3.24 0.479 6-0.6 3.099-1.199 5.519-4.54 4.819-7.34l0.097 0.089z"></path>
</symbol>
<symbol id="icon-javascript" viewBox="0 0 32 32">
<path d="M0 0h32v32h-32v-32zM29.379 24.368c-0.233-1.46-1.184-2.687-4.004-3.831-0.981-0.46-2.072-0.78-2.396-1.52-0.121-0.44-0.14-0.68-0.061-0.94 0.2-0.861 1.22-1.12 2.020-0.88 0.52 0.16 1 0.56 1.301 1.2 1.379-0.901 1.379-0.901 2.34-1.5-0.36-0.56-0.539-0.801-0.781-1.040-0.84-0.94-1.959-1.42-3.779-1.379l-0.94 0.119c-0.901 0.22-1.76 0.7-2.28 1.34-1.52 1.721-1.081 4.721 0.759 5.961 1.82 1.36 4.481 1.659 4.821 2.94 0.32 1.56-1.16 2.060-2.621 1.88-1.081-0.24-1.68-0.781-2.34-1.781l-2.44 1.401c0.28 0.64 0.6 0.919 1.080 1.479 2.32 2.341 8.12 2.221 9.161-1.339 0.039-0.12 0.32-0.94 0.099-2.2l0.061 0.089zM17.401 14.708h-2.997c0 2.584-0.012 5.152-0.012 7.74 0 1.643 0.084 3.151-0.184 3.615-0.44 0.919-1.573 0.801-2.088 0.64-0.528-0.261-0.796-0.621-1.107-1.14-0.084-0.14-0.147-0.261-0.169-0.261l-2.433 1.5c0.407 0.84 1 1.563 1.765 2.023 1.14 0.68 2.672 0.9 4.276 0.54 1.044-0.301 1.944-0.921 2.415-1.881 0.68-1.24 0.536-2.76 0.529-4.461 0.016-2.739 0-5.479 0-8.239l0.005-0.075z"></path>
</symbol>
<symbol id="icon-css3" viewBox="0 0 32 32">
<path d="M2 0h28l-2.547 28.751-11.484 3.249-11.42-3.251-2.549-28.749zM24.787 5.884l-17.573-0.004 0.284 3.496 13.5 0.003-0.34 3.621h-8.853l0.32 3.431h8.243l-0.488 4.697-3.88 1.072-3.941-1.080-0.251-2.813h-3.48l0.387 5.14 7.287 2.271 7.164-2.040 1.623-17.792z"></path>
</symbol>
</defs>
</svg>
